# xmcd CD database file
#
# Track frame offsets:
#	150
#	23205
#	47722
#	65635
#	87900
#	101850
#	119303
#	137174
#	159176
#	187182
#	214600
#
# Disc length: 3142 seconds
#
# Revision: 0
# Processed by: cddbd v1.5.2PL0 Copyright (c) Steve Scherf et al.
# Submitted via: CDex 1.70beta2
#
DISCID=9b0c440b
DTITLE=Mark - Sticky Rice Blues
DYEAR=1900
DGENRE=Blues
TTITLE0=Kio Thueng
TTITLE1=Whisky Cream
TTITLE2=Confuse
TTITLE3=Fare Well
TTITLE4=Sangsom
TTITLE5=Vegetarian Girl
TTITLE6=Queen Fuck Wit
TTITLE7=Taneawan Sunset
TTITLE8=Gone with the Dog
TTITLE9=That's Me SRB
TTITLE10=Tantawan Sunset (acoustic)
EXTD=
EXTT0=
EXTT1=
EXTT2=
EXTT3=
EXTT4=
EXTT5=
EXTT6=
EXTT7=
EXTT8=
EXTT9=
EXTT10=
PLAYORDER=
